<svg image-rendering='optimizeQuality' xmlns="http://www.w3.org/2000/svg" xmlns:xlink="http://www.w3.org/1999/xlink" width="198" height="39" viewBox="0 0 198 39">
    <defs>
        <path id="a" d="M0 37.946h401.176V.929H0z"/>
    </defs>
    <g fill="none" fill-rule="evenodd" transform="translate(0 .126)">
        <path fill="#1A171B" d="M62.173 5.177c-2.007-.844-4.151-1.393-6.061-1.393-2.795 0-4.19.593-4.19 1.663 0 3.053 12.454.596 12.454 7.109 0 2.697-2.558 4.778-7.685 4.778-3.04 0-5.412-.626-8.14-2.08l1.122-2.433c2.394 1.316 4.627 1.893 7.038 1.893 3.04 0 4.668-.863 4.668-2.158 0-3.34-12.458-.849-12.458-6.945 0-2.631 2.537-4.44 7.127-4.44 2.749 0 5.058.596 7.265 1.689l-1.14 2.317zM76.06 3.698c-3.622 0-6.1 2.427-6.1 5.543 0 3.186 2.368 5.555 6.1 5.555 3.707 0 6.064-2.395 6.064-5.555 0-3.116-2.357-5.543-6.064-5.543m0 13.713c-4.975 0-9.099-3.274-9.099-8.17 0-4.839 4.124-8.182 9.1-8.182 5.003 0 9.062 3.343 9.062 8.182 0 4.896-4.059 8.17-9.063 8.17M97.012 17.392c-5.232 0-9.165-3.272-9.165-8.175 0-4.815 4-8.159 9.165-8.159 3.08 0 5.285.872 7.27 2.308l-1.545 2.268C101.3 4.54 99.492 3.74 97.092 3.74c-3.812 0-6.186 2.384-6.186 5.476 0 3.185 2.393 5.497 6.226 5.497 2.394 0 4.295-.76 5.727-1.856l1.546 2.266c-1.985 1.45-4.313 2.268-7.393 2.268"/>
        <mask id="b" fill="#fff">
            <use xlink:href="#a"/>
        </mask>
        <path fill="#1A171B" d="M107.561 16.979h2.904V1.536h-2.904zM114.75 16.979V1.536h14.226v2.552h-11.324V7.84h8.8v2.548h-8.8v4.036h11.826v2.554zM140.282 4.07v12.91h-2.891V4.07h-6.37V1.535h15.626V4.07zM148.977 16.979V1.536h14.225v2.552h-11.326V7.84h8.81v2.548h-8.81v4.036h11.826v2.554zM57.481 35.249c1.586 0 3.226-.355 4.459-.928v-4.489h2.81v5.996c-1.98 1.316-4.705 2.118-7.39 2.118-5.224 0-9.166-3.27-9.166-8.177 0-4.818 4-8.145 9.166-8.145 3.02 0 5.288.844 7.269 2.283l-1.539 2.27c-1.444-1.095-3.253-1.84-5.652-1.84-3.81-.084-6.179 2.35-6.179 5.432 0 3.2 2.392 5.48 6.222 5.48M68.566 37.528v-15.43h14.232v2.545H71.46v3.754h8.814v2.547h-8.814v4.04h11.833v2.544zM88.973 37.528h-2.831v-15.43h2.952l10.185 11.63.074-.019c-.175-2.923-.192-5.292-.192-7.586v-4.025h2.827v15.43h-2.93L88.908 25.903l-.046.018c.112 2.287.112 6.282.112 7.58v4.027zM106.069 37.528v-15.43h14.22v2.545h-11.33v3.754h8.81v2.547h-8.81v4.04h11.836v2.544zM133.58 29.279c1.81 0 2.83-.926 2.83-2.266 0-1.462-.897-2.369-2.521-2.369h-7.14v4.635h6.83zm-2.163 2.57h-4.668v5.679h-2.9v-15.43h10.04c3.33 0 5.4 2.02 5.4 4.915 0 2.756-2.03 4.402-4.487 4.753l4.654 5.762h-3.63l-4.409-5.678zM146.597 31.281h6.02l-3.001-6.261-3.019 6.261zm-1.206 2.505l-1.793 3.742h-3.132l7.61-15.43h3.043l7.62 15.43h-3.12l-1.803-3.742h-8.425zM160.865 37.528v-15.43h2.891v12.887h10.43v2.543zM176.146 37.528v-15.43h14.24v2.545h-11.341v3.754h8.814v2.547h-8.814v4.04h11.833v2.544z" mask="url(#b)"/>
        <path fill="#E60028" d="M0 19.877h37.333V1.054H0z" mask="url(#b)"/>
        <path fill="#1A171B" d="M0 37.946h37.333V19.502H0z" mask="url(#b)"/>
        <path fill="#FFF" d="M6.509 20.625h24.286v-2.25H6.51z" mask="url(#b)"/>
    </g>
</svg>
